<?xml version="1.0"?>
<svg version="1.1" xmlns="http://www.w3.org/2000/svg" width="51px" height="70px" style="border:2px solid black"><path fill="#fe9e0d" d="M46.08,23.8c0,0.24-0.08,0.64-0.32,1.04l-16.48,30.48l0,21.04c0,1.2-0.64,1.84-1.84,1.84l-6.72,0c-1.2,0-1.84-0.64-1.84-2l0-20.48l-17.36-30.96c-0.16-0.32-0.24-0.56-0.24-0.8c0-0.64,0.56-1.12,1.44-1.12l7.28,0c1.44,0,2.4,0.48,2.96,1.52l11.52,22.64l0.16,0l11.36-22.48c0.64-1.28,1.28-1.68,2.8-1.68l5.76,0c0.96,0,1.52,0.32,1.52,0.96z"/><path fill="#" d=""/></svg>
