<?xml version="1.0"?>
<svg version="1.1" xmlns="http://www.w3.org/2000/svg" width="210px" height="55px" style=""><path fill="#fe9e0d" d="M30.952,20.22c0,0.156-0.052,0.416-0.208,0.676l-10.712,19.812l0,13.676c0,0.78-0.416,1.196-1.196,1.196l-4.368,0c-0.78,0-1.196-0.416-1.196-1.3l0-13.312l-11.284-20.124c-0.104-0.208-0.156-0.364-0.156-0.52c0-0.416,0.364-0.728,0.936-0.728l4.732,0c0.936,0,1.56,0.312,1.924,0.988l7.488,14.716l0.104,0l7.384-14.612c0.416-0.832,0.832-1.092,1.82-1.092l3.744,0c0.624,0,0.988,0.208,0.988,0.624z M68.678,39.616c0,10.712-5.044,16.588-15.184,16.588c-10.972,0-14.976-6.032-14.976-16.692l0-18.668c0-0.884,0.52-1.248,1.352-1.248l4.108,0c0.884,0,1.248,0.364,1.248,1.248l0,18.096c0,7.644,1.976,11.596,8.528,11.596c6.292,0,8.268-4.16,8.268-11.596l0-18.096c0-0.884,0.468-1.248,1.3-1.248l4.108,0c0.884,0,1.248,0.364,1.248,1.248l0,18.772z M117.116,54.176c0.052,0.884-0.208,1.404-1.196,1.404l-4.212,0c-1.092,0-1.3-0.52-1.352-1.716l-0.728-21.112l-0.104,0l-8.84,21.892c-0.312,0.832-0.832,0.936-1.404,0.936l-1.82,0c-0.78,0-1.248-0.156-1.612-0.988l-9.828-21.84l-0.104,0l-0.468,21.528c0,1.144-0.468,1.3-1.404,1.3l-3.536,0c-0.988,0-1.404-0.364-1.352-1.352l1.3-33.228c0.052-1.092,0.416-1.404,1.248-1.404l3.068,0c1.04,0,1.404,0.364,1.768,1.144l12.012,25.688l0.104,0l10.972-25.688c0.312-0.78,0.728-1.144,1.664-1.144l3.068,0c0.832,0,1.144,0.312,1.196,1.144z M165.606,54.176c0.052,0.884-0.208,1.404-1.196,1.404l-4.212,0c-1.092,0-1.3-0.52-1.352-1.716l-0.728-21.112l-0.104,0l-8.84,21.892c-0.312,0.832-0.832,0.936-1.404,0.936l-1.82,0c-0.78,0-1.248-0.156-1.612-0.988l-9.828-21.84l-0.104,0l-0.468,21.528c0,1.144-0.468,1.3-1.404,1.3l-3.536,0c-0.988,0-1.404-0.364-1.352-1.352l1.3-33.228c0.052-1.092,0.416-1.404,1.248-1.404l3.068,0c1.04,0,1.404,0.364,1.768,1.144l12.012,25.688l0.104,0l10.972-25.688c0.312-0.78,0.728-1.144,1.664-1.144l3.068,0c0.832,0,1.144,0.312,1.196,1.144z M202.344,20.22c0,0.156-0.052,0.416-0.208,0.676l-10.712,19.812l0,13.676c0,0.78-0.416,1.196-1.196,1.196l-4.368,0c-0.78,0-1.196-0.416-1.196-1.3l0-13.312l-11.284-20.124c-0.104-0.208-0.156-0.364-0.156-0.52c0-0.416,0.364-0.728,0.936-0.728l4.732,0c0.936,0,1.56,0.312,1.924,0.988l7.488,14.716l0.104,0l7.384-14.612c0.416-0.832,0.832-1.092,1.82-1.092l3.744,0c0.624,0,0.988,0.208,0.988,0.624z"/><path fill="#" d=""/></svg>
